# xmcd
#
# Track frame offsets: 
#        150
#        16475
#        36087
#        54437
#        73962
#        92412
#        114862
#        134712
#        161262
#        178662
#
# Disc length: 2662 seconds
#
# Revision: 5
# Processed by: cddbd v1.5.2PL0 Copyright (c) Steve Scherf et al.
# Submitted via: ExactAudioCopyFreeDBPlugin 1.0
#
DISCID=800a640a
DTITLE=鄭中基 - 情深
DYEAR=1997
DGENRE=Blues
TTITLE0=情深
TTITLE1=人若然忘記了愛
TTITLE2=休息一天
TTITLE3=我想(I Wanna Stay)
TTITLE4=相對論
TTITLE5=另一種歡喜
TTITLE6=眼睛早已背叛你
TTITLE7=新裝
TTITLE8=熱情
TTITLE9=搬屋
EXTD=ID3G:   0
EXTT0=
EXTT1=
EXTT2=
EXTT3=
EXTT4=
EXTT5=
EXTT6=
EXTT7=
EXTT8=
EXTT9=
PLAYORDER=
